<svg width="192" height="192" viewBox="0 0 192 192" fill="none" xmlns="http://www.w3.org/2000/svg">
<rect width="192" height="192" rx="48" fill="url(#paint0_linear_2410_2)"/>
<g filter="url(#filter0_i_2410_2)">
<rect x="26" y="48" width="140" height="96" rx="16" fill="#4D82DC" fill-opacity="0.16"/>
</g>
<g opacity="0.5">
<path d="M109.477 121V71H126.73C134.852 71 141.096 73.1831 145.462 77.5493C149.829 81.8685 152.012 88.0423 152.012 96.0704C152.012 104.052 149.852 110.202 145.533 114.521C141.261 118.84 135.134 121 127.153 121H109.477ZM120.181 111.986H126.73C131.566 111.986 135.134 110.695 137.434 108.113C139.782 105.484 140.955 101.446 140.955 96C140.955 90.554 139.782 86.5399 137.434 83.9577C135.134 81.3286 131.566 80.0141 126.73 80.0141H120.181V111.986Z" fill="#EBEFFF"/>
<path d="M46 121V71H60.2958L73.0423 107.408L85.7183 71H100.014V121H89.3099V88.6056L77.5493 120.859H68.3944L56.7042 88.6056V121H46Z" fill="#EBEFFF"/>
</g>
<path d="M106.477 121V71H123.73C131.852 71 138.096 73.1831 142.462 77.5493C146.829 81.8685 149.012 88.0423 149.012 96.0704C149.012 104.052 146.852 110.202 142.533 114.521C138.261 118.84 132.134 121 124.153 121H106.477ZM117.181 111.986H123.73C128.566 111.986 132.134 110.695 134.434 108.113C136.782 105.484 137.955 101.446 137.955 96C137.955 90.554 136.782 86.5399 134.434 83.9577C132.134 81.3286 128.566 80.0141 123.73 80.0141H117.181V111.986Z" fill="#EBEFFF"/>
<path d="M43 121V71H57.2958L70.0423 107.408L82.7183 71H97.0141V121H86.3099V88.6056L74.5493 120.859H65.3944L53.7042 88.6056V121H43Z" fill="#EBEFFF"/>
<defs>
<filter id="filter0_i_2410_2" x="26" y="48" width="142" height="98" filterUnits="userSpaceOnUse" color-interpolation-filters="sRGB">
<feFlood flood-opacity="0" result="BackgroundImageFix"/>
<feBlend mode="normal" in="SourceGraphic" in2="BackgroundImageFix" result="shape"/>
<feColorMatrix in="SourceAlpha" type="matrix" values="0 0 0 0 0 0 0 0 0 0 0 0 0 0 0 0 0 0 127 0" result="hardAlpha"/>
<feOffset dx="2" dy="2"/>
<feGaussianBlur stdDeviation="8"/>
<feComposite in2="hardAlpha" operator="arithmetic" k2="-1" k3="1"/>
<feColorMatrix type="matrix" values="0 0 0 0 0.921569 0 0 0 0 0.937255 0 0 0 0 1 0 0 0 0.16 0"/>
<feBlend mode="normal" in2="shape" result="effect1_innerShadow_2410_2"/>
</filter>
<linearGradient id="paint0_linear_2410_2" x1="96" y1="0" x2="96" y2="192" gradientUnits="userSpaceOnUse">
<stop stop-color="#0866FF"/>
<stop offset="1" stop-color="#0042AD"/>
</linearGradient>
</defs>
</svg>
